<mxfile host="app.diagrams.net" modified="2023-08-18T15:14:30.102Z" agent="Mozilla/5.0 (Windows NT 10.0; Win64; x64) AppleWebKit/537.36 (KHTML, like Gecko) Chrome/116.0.0.0 Safari/537.36" etag="n5w_0z24w2nuAc-y-l0D" version="21.6.6" type="device">
  <diagram name="Page-1" id="SHPYpJt6w-cRJXV2Z5jG">
    <mxGraphModel dx="744" dy="410" grid="1" gridSize="10" guides="1" tooltips="1" connect="1" arrows="1" fold="1" page="1" pageScale="1" pageWidth="850" pageHeight="1100" math="0" shadow="0">
      <root>
        <mxCell id="0" />
        <mxCell id="1" parent="0" />
        <mxCell id="NV1-Wkj-HJB_ejk9U_Qw-3" style="edgeStyle=orthogonalEdgeStyle;rounded=0;orthogonalLoop=1;jettySize=auto;html=1;entryX=0;entryY=0.5;entryDx=0;entryDy=0;entryPerimeter=0;" edge="1" parent="1" source="NV1-Wkj-HJB_ejk9U_Qw-1" target="NV1-Wkj-HJB_ejk9U_Qw-2">
          <mxGeometry relative="1" as="geometry" />
        </mxCell>
        <mxCell id="NV1-Wkj-HJB_ejk9U_Qw-7" style="edgeStyle=orthogonalEdgeStyle;rounded=0;orthogonalLoop=1;jettySize=auto;html=1;entryX=0.005;entryY=0.379;entryDx=0;entryDy=0;entryPerimeter=0;" edge="1" parent="1" source="NV1-Wkj-HJB_ejk9U_Qw-1" target="NV1-Wkj-HJB_ejk9U_Qw-6">
          <mxGeometry relative="1" as="geometry" />
        </mxCell>
        <mxCell id="NV1-Wkj-HJB_ejk9U_Qw-1" value="Actor" style="shape=umlActor;verticalLabelPosition=bottom;verticalAlign=top;html=1;outlineConnect=0;" vertex="1" parent="1">
          <mxGeometry x="110" y="280" width="30" height="60" as="geometry" />
        </mxCell>
        <mxCell id="NV1-Wkj-HJB_ejk9U_Qw-9" style="edgeStyle=orthogonalEdgeStyle;rounded=0;orthogonalLoop=1;jettySize=auto;html=1;" edge="1" parent="1" source="NV1-Wkj-HJB_ejk9U_Qw-2" target="NV1-Wkj-HJB_ejk9U_Qw-8">
          <mxGeometry relative="1" as="geometry" />
        </mxCell>
        <mxCell id="NV1-Wkj-HJB_ejk9U_Qw-2" value="html(template)" style="shape=note;whiteSpace=wrap;html=1;backgroundOutline=1;darkOpacity=0.05;" vertex="1" parent="1">
          <mxGeometry x="210" y="170" width="100" height="100" as="geometry" />
        </mxCell>
        <mxCell id="NV1-Wkj-HJB_ejk9U_Qw-4" value="просмотр услуг" style="text;html=1;strokeColor=none;fillColor=none;align=center;verticalAlign=middle;whiteSpace=wrap;rounded=0;" vertex="1" parent="1">
          <mxGeometry x="100" y="190" width="60" height="30" as="geometry" />
        </mxCell>
        <mxCell id="NV1-Wkj-HJB_ejk9U_Qw-5" value="отправлять жалобы (POST)" style="text;html=1;strokeColor=none;fillColor=none;align=center;verticalAlign=middle;whiteSpace=wrap;rounded=0;" vertex="1" parent="1">
          <mxGeometry x="130" y="380" width="70" height="50" as="geometry" />
        </mxCell>
        <mxCell id="NV1-Wkj-HJB_ejk9U_Qw-6" value="html" style="shape=note;whiteSpace=wrap;html=1;backgroundOutline=1;darkOpacity=0.05;" vertex="1" parent="1">
          <mxGeometry x="210" y="330" width="80" height="100" as="geometry" />
        </mxCell>
        <mxCell id="NV1-Wkj-HJB_ejk9U_Qw-11" style="edgeStyle=orthogonalEdgeStyle;rounded=0;orthogonalLoop=1;jettySize=auto;html=1;entryX=0.084;entryY=0.286;entryDx=0;entryDy=0;entryPerimeter=0;" edge="1" parent="1" source="NV1-Wkj-HJB_ejk9U_Qw-8" target="NV1-Wkj-HJB_ejk9U_Qw-10">
          <mxGeometry relative="1" as="geometry" />
        </mxCell>
        <mxCell id="NV1-Wkj-HJB_ejk9U_Qw-8" value="def(view)" style="shape=cube;whiteSpace=wrap;html=1;boundedLbl=1;backgroundOutline=1;darkOpacity=0.05;darkOpacity2=0.1;" vertex="1" parent="1">
          <mxGeometry x="400" y="170" width="120" height="80" as="geometry" />
        </mxCell>
        <mxCell id="NV1-Wkj-HJB_ejk9U_Qw-10" value="class(model)" style="shape=cylinder3;whiteSpace=wrap;html=1;boundedLbl=1;backgroundOutline=1;size=15;" vertex="1" parent="1">
          <mxGeometry x="640" y="200" width="90" height="80" as="geometry" />
        </mxCell>
        <mxCell id="NV1-Wkj-HJB_ejk9U_Qw-12" value="ORM" style="text;html=1;strokeColor=none;fillColor=none;align=center;verticalAlign=middle;whiteSpace=wrap;rounded=0;" vertex="1" parent="1">
          <mxGeometry x="550" y="170" width="60" height="30" as="geometry" />
        </mxCell>
        <mxCell id="NV1-Wkj-HJB_ejk9U_Qw-13" value="chrome" style="ellipse;whiteSpace=wrap;html=1;aspect=fixed;" vertex="1" parent="1">
          <mxGeometry x="50" y="320" width="80" height="80" as="geometry" />
        </mxCell>
        <mxCell id="NV1-Wkj-HJB_ejk9U_Qw-14" value="" style="shape=flexArrow;endArrow=classic;html=1;rounded=0;" edge="1" parent="1">
          <mxGeometry width="50" height="50" relative="1" as="geometry">
            <mxPoint x="80" y="310" as="sourcePoint" />
            <mxPoint x="200" y="210" as="targetPoint" />
          </mxGeometry>
        </mxCell>
        <mxCell id="NV1-Wkj-HJB_ejk9U_Qw-15" value="URL" style="text;html=1;strokeColor=none;fillColor=none;align=center;verticalAlign=middle;whiteSpace=wrap;rounded=0;" vertex="1" parent="1">
          <mxGeometry x="80" y="230" width="60" height="30" as="geometry" />
        </mxCell>
      </root>
    </mxGraphModel>
  </diagram>
</mxfile>
